<mxfile host="app.diagrams.net" modified="2023-09-18T21:15:59.341Z" agent="Mozilla/5.0 (Windows NT 10.0; Win64; x64) AppleWebKit/537.36 (KHTML, like Gecko) Chrome/116.0.0.0 Safari/537.36" version="21.7.5" etag="kj2oZCiTDVEH4xz746re" type="github">
  <diagram name="PÃ¡gina-1" id="0XYAwkL80nPNVZMRZ_4h">
    <mxGraphModel>
      <root>
        <mxCell id="0" />
        <mxCell id="1" parent="0" />
      </root>
    </mxGraphModel>
  </diagram>
</mxfile>
